<?xml version="1.0" encoding="utf-8"?>
<!-- Generator: Adobe Illustrator 21.0.0, SVG Export Plug-In . SVG Version: 6.00 Build 0)  -->
<svg version="1.1" id="Layer_1" xmlns="http://www.w3.org/2000/svg" xmlns:xlink="http://www.w3.org/1999/xlink" x="0px" y="0px"
	 viewBox="0 0 1280 800" style="enable-background:new 0 0 1280 800;" xml:space="preserve">
<style type="text/css">
	.st0{fill:#E70005;}
	.st1{fill:none;stroke:#000000;stroke-width:8;stroke-miterlimit:10;}
	.st2{fill:none;stroke:#000000;stroke-miterlimit:10;}
	.st3{fill:none;stroke:#000000;stroke-width:5;stroke-miterlimit:10;}
	.st4{fill:none;stroke:#000000;stroke-width:3;stroke-miterlimit:10;}
	.st5{fill:none;stroke:#231F20;stroke-linecap:round;stroke-miterlimit:10;}
	.st6{stroke:#231F20;stroke-linecap:round;stroke-miterlimit:10;}
</style>
<g>
	<g>
	</g>
	<g>
	</g>
	<path class="st0" d="M21.5,646.5v100h19v-40h61v40h20v-100H21.5z M101.5,687.5h-61v-21h61V687.5z"/>
	<polygon points="296.5,647.5 296.5,747.5 396.5,647.5 	"/>
	<polyline class="st0" points="296.5,747.5 397.5,747.5 396.5,647.5 	"/>
	<path d="M226.016,646.5H155.5v100h20v-40l67.946,38.653c1.34,0.879,2.908,1.347,4.51,1.347c8.171,0,11.343-10.623,1.04-16.943
		L206,705l19.002,0.451c16.671,0.574,30.498-12.786,30.498-29.467v0C255.5,659.701,242.3,646.5,226.016,646.5z M226,687.5h-50.5v-21
		H226c5.799,0,10.5,4.701,10.5,10.5l0,0C236.5,682.799,231.799,687.5,226,687.5z"/>
</g>
<path class="st1" d="M324,163.944v300l49.4,28.521v-120L532,464.033v120l52,30.022v-300L324,163.944z M532,344.033v63l-158.6-91.568
	v-63L532,344.033z"/>
<path d="M767.341,208.203L584,314.056v300l52-30.022v-120l176.659,13.965c3.484,0.625,7.56-0.324,11.727-2.73
	c21.244-12.265,29.492-48.897,2.704-52.391l-111.79-9.128l49.406-27.172C808.051,363.273,844,302.44,844,252.397v0
	C844,203.546,809.679,183.76,767.341,208.203z M767.3,331.227L636,407.033v-63l131.3-75.806c15.077-8.705,27.3-1.659,27.3,15.738v0
	C794.6,301.363,782.377,322.522,767.3,331.227z"/>
<line x1="584" y1="314" x2="844" y2="164"/>
<polyline class="st2" points="377.5,133.5 377.5,163.5 365,176 "/>
<polyline class="st2" points="392.5,124.5 392.5,163.5 392.5,190.5 "/>
<polyline class="st2" points="392.5,151.05 406.225,164.775 406.225,197.5 "/>
<line class="st3" x1="416.5" y1="110.5" x2="416.5" y2="204.5"/>
<polyline class="st2" points="431.5,101.5 465,135 465,231.5 "/>
<polyline class="st3" points="448.5,92.5 486.5,130.5 486.5,182.5 504.5,200.5 504.5,254.5 "/>
<line class="st2" x1="486.5" y1="182.5" x2="486.5" y2="236.5"/>
<polyline class="st2" points="486.5,165.34 474.42,177.42 474.42,226.5 "/>
<line class="st2" x1="454" y1="124.5" x2="454" y2="216.5"/>
<polyline class="st2" points="444.426,114.426 444.426,154.5 429.963,168.963 429.963,209.5 "/>
<line class="st2" x1="441.426" y1="157.5" x2="441.426" y2="204.5"/>
<polyline class="st2" points="437.195,107.195 426.195,118.195 426.195,151.5 "/>
<polyline class="st2" points="465.5,82.5 506,123 506,175.5 "/>
<polyline class="st2" points="485.5,70.5 504,89 504,107.5 "/>
<line class="st2" x1="519.5" y1="51.5" x2="519.5" y2="263.5"/>
<polyline class="st2" points="519.5,197.5 538,216 538,276.5 "/>
<line class="st2" x1="528.5" y1="46.5" x2="528.5" y2="129.5"/>
<polyline class="st3" points="564.5,25.5 564.5,120.5 548,137 548,282.5 "/>
<line class="st2" x1="556.25" y1="128.75" x2="556.25" y2="236.5"/>
<polyline class="st2" points="556.25,199.869 571.691,215.309 571.691,267.5 "/>
<line class="st2" x1="542.5" y1="38.5" x2="542.5" y2="97.5"/>
<polyline class="st2" points="528.5,107.195 537.153,115.847 537.153,173.5 "/>
<polyline class="st2" points="564.5,82.5 576,94 576,153.5 "/>
<line class="st2" x1="355.5" y1="145.5" x2="355.5" y2="157.5"/>
<path class="st4" d="M382.5,308.5"/>
<path class="st2" d="M382.5,266.5"/>
<path class="st4" d="M407.5,323.5"/>
<path class="st4" d="M428.5,337.5"/>
<path class="st4" d="M466.5,310.5"/>
<path class="st4" d="M487.5,367.5"/>
<path class="st4" d="M504.5,381.5"/>
<path class="st4" d="M514.5,341.5"/>
<circle class="st5" cx="377.159" cy="68.624" r="4.64"/>
<circle class="st6" cx="392.159" cy="68.624" r="4.64"/>
</svg>
