<?xml version="1.0" encoding="utf-8"?>
<!-- Generator: Adobe Illustrator 21.0.0, SVG Export Plug-In . SVG Version: 6.00 Build 0)  -->
<svg version="1.1" id="Layer_1" xmlns="http://www.w3.org/2000/svg" xmlns:xlink="http://www.w3.org/1999/xlink" x="0px" y="0px"
	 viewBox="0 0 820.832 542.389" style="enable-background:new 0 0 820.832 542.389;" xml:space="preserve">
<style type="text/css">
	.st0{fill:#B3B3B3;}
	.st1{fill:url(#SVGID_1_);}
	.st2{fill:url(#SVGID_2_);}
	.st3{fill:#E6E6E6;}
	.st4{fill:#808080;}
	.st5{fill:url(#SVGID_3_);}
	.st6{fill:url(#SVGID_4_);}
	.st7{fill:url(#SVGID_5_);}
</style>
<polygon class="st0" points="249.581,56.995 249.328,300.038 199.964,328.538 199.964,28.538 "/>
<linearGradient id="SVGID_1_" gradientUnits="userSpaceOnUse" x1="462.3774" y1="171.6382" x2="654.8672" y2="171.6382">
	<stop  offset="0" style="stop-color:#333333"/>
	<stop  offset="0.3357" style="stop-color:#484848"/>
	<stop  offset="0.7128" style="stop-color:#585858"/>
	<stop  offset="1" style="stop-color:#5E5E5E"/>
</linearGradient>
<polygon class="st1" points="462.377,180 611.209,75 654.867,117.571 601.589,201.679 462.377,268.276 "/>
<linearGradient id="SVGID_2_" gradientUnits="userSpaceOnUse" x1="199.9718" y1="180.2857" x2="358.4544" y2="180.2857">
	<stop  offset="0" style="stop-color:#808080"/>
	<stop  offset="0.5793" style="stop-color:#929292"/>
	<stop  offset="1" style="stop-color:#999999"/>
</linearGradient>
<polygon class="st2" points="199.972,151.5 249.749,117.571 358.454,180 358.454,243 "/>
<path class="st3" d="M150.608,0v300l49.363,28.5v-120L358.454,300v120l51.962,30V150L150.608,0z M358.454,243l-158.483-91.5v-63
	L358.454,180V243z"/>
<path class="st4" d="M593.622,44.226L410.416,150v300l51.962-30V300l176.529,14.04c3.481,0.627,7.555-0.321,11.717-2.724
	c21.229-12.256,29.47-48.883,2.702-52.389l-111.707-9.177l49.369-27.15c43.312-23.285,79.236-84.105,79.236-134.148l0,0
	C670.224,39.603,635.929,19.8,593.622,44.226z M593.58,167.25L462.377,243v-63l131.203-75.75c15.066-8.698,27.28-1.647,27.28,15.75
	l0,0C620.86,137.397,608.647,158.552,593.58,167.25z"/>
<path class="st4" d="M593.622,44.226L410.416,150v300l51.962-30V300l176.529,14.04c3.481,0.627,7.555-0.321,11.717-2.724
	c21.229-12.256,29.47-48.883,2.702-52.389l-111.707-9.177l49.369-27.15c43.312-23.285,79.236-84.105,79.236-134.148l0,0
	C670.224,39.603,635.929,19.8,593.622,44.226z M593.58,167.25L462.377,243v-63l131.203-75.75c15.066-8.698,27.28-1.647,27.28,15.75
	l0,0C620.86,137.397,608.647,158.552,593.58,167.25z"/>
<g>
</g>
<linearGradient id="SVGID_3_" gradientUnits="userSpaceOnUse" x1="287.6212" y1="219.5824" x2="161.0098" y2="0.2849">
	<stop  offset="0" style="stop-color:#FFFFFF;stop-opacity:0.3"/>
	<stop  offset="1" style="stop-color:#999999"/>
</linearGradient>
<path class="st5" d="M410.416,150L150.608,0v264.538c15.487-0.369,32.045-2.354,49.363-5.913V208.5l57.797,33.369
	c18.322-6.774,37.055-15.033,55.9-24.726L199.972,151.5v-63L358.454,180v11.461c6.868-4.355,13.721-8.886,20.541-13.612
	c10.898-7.552,21.377-15.347,31.42-23.326V150z"/>
<linearGradient id="SVGID_4_" gradientUnits="userSpaceOnUse" x1="641.8288" y1="304.0895" x2="519.8764" y2="92.8617">
	<stop  offset="0" style="stop-color:#4D4D4D;stop-opacity:0.3"/>
	<stop  offset="1" style="stop-color:#999999"/>
</linearGradient>
<path class="st6" d="M410.416,167.257c5.853,59.492,58.718,114.809,133.616,139.237l94.874,7.546
	c3.481,0.627,7.555-0.321,11.717-2.724c21.229-12.256,29.47-48.883,2.702-52.389l-111.707-9.177l49.369-27.15
	c43.313-23.285,79.236-84.105,79.236-134.148c0-48.849-34.295-68.652-76.602-44.226L410.416,150V167.257z M462.377,180
	l131.203-75.75c15.066-8.698,27.28-1.647,27.28,15.75s-12.214,38.552-27.28,47.25L462.377,243V180z"/>
<radialGradient id="SVGID_5_" cx="410.4159" cy="512.3333" r="258.5528" gradientTransform="matrix(1.1262 0 0 0.0956 -51.8122 463.3643)" gradientUnits="userSpaceOnUse">
	<stop  offset="0" style="stop-color:#000000;stop-opacity:0.4"/>
	<stop  offset="0.1037" style="stop-color:#050505;stop-opacity:0.3585"/>
	<stop  offset="0.2319" style="stop-color:#151515;stop-opacity:0.3072"/>
	<stop  offset="0.3733" style="stop-color:#2E2E2E;stop-opacity:0.2507"/>
	<stop  offset="0.524" style="stop-color:#515151;stop-opacity:0.1904"/>
	<stop  offset="0.6821" style="stop-color:#7E7E7E;stop-opacity:0.1271"/>
	<stop  offset="0.8439" style="stop-color:#B4B4B4;stop-opacity:0.0624"/>
	<stop  offset="1" style="stop-color:#F0F0F0;stop-opacity:0"/>
</radialGradient>
<ellipse class="st7" cx="410.416" cy="512.333" rx="410.416" ry="30.056"/>
</svg>
